<?xml version="1.0" encoding="UTF-8" standalone="no"?>
<svg
   xmlns:dc="http://purl.org/dc/elements/1.1/"
   xmlns:cc="http://creativecommons.org/ns#"
   xmlns:rdf="http://www.w3.org/1999/02/22-rdf-syntax-ns#"
   xmlns:svg="http://www.w3.org/2000/svg"
   xmlns="http://www.w3.org/2000/svg"
   xmlns:sodipodi="http://sodipodi.sourceforge.net/DTD/sodipodi-0.dtd"
   xmlns:inkscape="http://www.inkscape.org/namespaces/inkscape"
   version="1.1"
   id="Layer_1"
   x="0px"
   y="0px"
   viewBox="0 0 335 307"
   xml:space="preserve"
   sodipodi:docname="merge.svg"
   width="335"
   height="307"
   inkscape:version="1.0.2 (1.0.2+r75+1)"><metadata
   id="metadata1628"><rdf:RDF><cc:Work
       rdf:about=""><dc:format>image/svg+xml</dc:format><dc:type
         rdf:resource="http://purl.org/dc/dcmitype/StillImage" /><dc:title></dc:title></cc:Work></rdf:RDF></metadata><defs
   id="defs1626" />
<style
   type="text/css"
   id="style1506">
	.st0{fill:#F7F7F7;stroke:#FC8D59;}
	.st1{fill:none;stroke:#85888D;stroke-width:2;}
	.st2{fill:none;stroke:#000000;stroke-width:2;}
	.st3{fill:none;stroke:#F1A340;stroke-width:2;}
	.st4{fill:none;stroke:#F1A340;stroke-width:2;stroke-dasharray:5.1437,5.4482;}
	.st5{fill:#F7F7F7;}
	.st6{fill:none;stroke:#F1A340;stroke-width:2;stroke-dasharray:5.3077,5.3077;}
	.st7{fill:#91BFDB;}
	.st8{fill:none;stroke:#F1A340;stroke-width:2;stroke-dasharray:5.1436,5.4483;}
	.st9{fill:#D8DAEB;}
	.st10{fill:none;stroke:#998EC3;stroke-width:2;}
	.st11{fill:none;stroke:#998EC3;stroke-width:2;stroke-dasharray:3.0832,3.0832;}
	.st12{fill:#91BFDB;fill-opacity:0;stroke:#91BFDB;stroke-width:0.2023;stroke-opacity:0;}
	.st13{opacity:0;}
	.st14{fill:none;stroke:#91BFDB;stroke-width:0.202;}
	.st15{fill:none;stroke:#91BFDB;stroke-width:0.202;stroke-dasharray:5.2962,5.2962;}
</style>
<sodipodi:namedview
   bordercolor="#666666"
   borderopacity="1"
   gridtolerance="10"
   guidetolerance="10"
   id="namedview61"
   inkscape:current-layer="Layer_1"
   inkscape:cx="160.42602"
   inkscape:cy="124.72034"
   inkscape:pageopacity="0"
   inkscape:pageshadow="2"
   inkscape:snap-grids="true"
   inkscape:window-height="1412"
   inkscape:window-maximized="1"
   inkscape:window-width="2560"
   inkscape:window-x="2560"
   inkscape:window-y="0"
   inkscape:zoom="1.447216"
   objecttolerance="10"
   pagecolor="#ffffff"
   showgrid="false"
   inkscape:document-rotation="0"
   fit-margin-top="0"
   fit-margin-left="0"
   fit-margin-right="0"
   fit-margin-bottom="0">
	<inkscape:grid
   id="grid4664"
   type="xygrid"
   originx="-32"
   originy="-42" />
</sodipodi:namedview>
<rect
   id="rect2"
   x="234"
   y="87"
   class="st0"
   width="100"
   height="127" />
<rect
   id="rect4"
   x="234"
   y="87"
   class="st1"
   width="100"
   height="127" />
<line
   id="line6"
   class="st2"
   x1="247"
   y1="107"
   x2="321"
   y2="107" />
<g
   id="line8"
   transform="translate(-32,-42)">
	<g
   id="g1519">
		<line
   class="st3"
   x1="279"
   y1="155"
   x2="281.5"
   y2="155"
   id="line1513" />
		<line
   class="st4"
   x1="286.89999"
   y1="155"
   x2="347.79999"
   y2="155"
   id="line1515" />
		<line
   class="st3"
   x1="350.5"
   y1="155"
   x2="353"
   y2="155"
   id="line1517" />
	</g>
</g>
<line
   id="line10"
   class="st2"
   x1="247"
   y1="118"
   x2="321"
   y2="118" />
<line
   id="line12"
   class="st2"
   x1="247"
   y1="130"
   x2="321"
   y2="130" />
<rect
   id="rect14"
   x="1"
   y="1"
   class="st5"
   width="100"
   height="128" />
<rect
   id="rect16"
   x="1"
   y="1"
   class="st1"
   width="100"
   height="128" />
<line
   id="line18"
   class="st2"
   x1="14"
   y1="21"
   x2="88"
   y2="21" />
<g
   id="line20"
   transform="translate(-32,-42)">
	<g
   id="g1533">
		<line
   class="st3"
   x1="46"
   y1="69"
   x2="48.5"
   y2="69"
   id="line1527" />
		<line
   class="st6"
   x1="53.799999"
   y1="69"
   x2="114.8"
   y2="69"
   id="line1529" />
		<line
   class="st3"
   x1="117.5"
   y1="69"
   x2="120"
   y2="69"
   id="line1531" />
	</g>
</g>
<line
   id="line22"
   class="st2"
   x1="14"
   y1="33"
   x2="88"
   y2="33" />
<line
   id="line24"
   class="st2"
   x1="14"
   y1="45"
   x2="88"
   y2="45" />
<g
   id="line26"
   transform="translate(-32,-42)">
	<path
   class="st7"
   d="m 162,155 h 74 z"
   id="path1538" />
	<g
   id="g1548">
		<polyline
   class="st3"
   points="164.5,155 162,155 164.5,155   "
   id="polyline1540" />
		<line
   class="st8"
   x1="169.89999"
   y1="155"
   x2="230.8"
   y2="155"
   id="line1542" />
		<polyline
   class="st3"
   points="233.5,155 236,155 233.5,155   "
   id="polyline1544" />
		<line
   class="st8"
   x1="228.10001"
   y1="155"
   x2="167.2"
   y2="155"
   id="line1546" />
	</g>
</g>
<polygon
   id="polygon44"
   class="st9"
   points="239.7,246.3 192.4,229.3 196.7,243.4 155.8,255.9 164.8,285.3 205.7,272.8 210,286.8 "
   transform="translate(-32,-42)" />
<polygon
   id="polygon46"
   class="st9"
   points="240.4,128.4 210.8,87.9 206.5,102 165.6,89.5 156.6,118.9 197.5,131.4 193.2,145.4 "
   transform="translate(-32,-42)" />
<g
   id="line50"
   transform="translate(-32,-42)">
	<g
   id="g1559">
		<line
   class="st10"
   x1="162"
   y1="208"
   x2="163.5"
   y2="208"
   id="line1553" />
		<line
   class="st11"
   x1="166.60001"
   y1="208"
   x2="232.89999"
   y2="208"
   id="line1555" />
		<line
   class="st10"
   x1="234.5"
   y1="208"
   x2="236"
   y2="208"
   id="line1557" />
	</g>
</g>
<g
   id="line52"
   transform="translate(-32,-42)">
	<g
   id="g1568">
		<line
   class="st10"
   x1="162"
   y1="214"
   x2="163.5"
   y2="214"
   id="line1562" />
		<line
   class="st11"
   x1="166.60001"
   y1="214"
   x2="232.89999"
   y2="214"
   id="line1564" />
		<line
   class="st10"
   x1="234.5"
   y1="214"
   x2="236"
   y2="214"
   id="line1566" />
	</g>
</g>
<g
   id="line54"
   transform="translate(-32,-42)">
	<g
   id="g1577">
		<line
   class="st10"
   x1="279"
   y1="179"
   x2="280.5"
   y2="179"
   id="line1571" />
		<line
   class="st11"
   x1="283.60001"
   y1="179"
   x2="349.89999"
   y2="179"
   id="line1573" />
		<line
   class="st10"
   x1="351.5"
   y1="179"
   x2="353"
   y2="179"
   id="line1575" />
	</g>
</g>
<g
   id="line56"
   transform="translate(-32,-42)">
	<g
   id="g1586">
		<line
   class="st10"
   x1="279"
   y1="185"
   x2="280.5"
   y2="185"
   id="line1580" />
		<line
   class="st11"
   x1="283.60001"
   y1="185"
   x2="349.89999"
   y2="185"
   id="line1582" />
		<line
   class="st10"
   x1="351.5"
   y1="185"
   x2="353"
   y2="185"
   id="line1584" />
	</g>
</g>
<path
   id="path4594"
   inkscape:connector-curvature="0"
   class="st12"
   d="m 148.6,113.9 c 10.2,0 26.9,0 37,0 10.1,0 1.8,0.1 -18.6,0.1 -20.4,0 -28.7,-0.1 -18.4,-0.1 z" />
<g
   id="path4598"
   inkscape:connector-curvature="0"
   transform="translate(-32,-42)">
	<g
   class="st13"
   id="g1598">
		<polyline
   class="st14"
   points="164.6,155.8 162.1,155.8 162.1,154.9 162.1,154 164.6,154   "
   id="polyline1590" />
		<polyline
   class="st15"
   points="169.9,154 199,154 230.8,154   "
   id="polyline1592" />
		<polyline
   class="st14"
   points="233.4,154 235.9,154 235.9,154.9 235.9,155.8 233.4,155.8   "
   id="polyline1594" />
		<polyline
   class="st15"
   points="228.1,155.8 199,155.8 167.2,155.8   "
   id="polyline1596" />
	</g>
</g>
<rect
   id="rect2-3"
   x="1"
   y="179"
   class="st0"
   width="100"
   height="127" />
<rect
   id="rect4-6"
   x="1"
   y="179"
   class="st1"
   width="100"
   height="127" />
<line
   id="line6-7"
   class="st2"
   x1="14"
   y1="199"
   x2="88"
   y2="199" />
<line
   id="line8-5"
   class="st2"
   x1="14"
   y1="205"
   x2="88"
   y2="205" />
<line
   id="line10-3"
   class="st2"
   x1="14"
   y1="210"
   x2="88"
   y2="210" />
<line
   id="line12-5"
   class="st2"
   x1="14"
   y1="222"
   x2="88"
   y2="222" />
<g
   id="line54-6"
   transform="translate(-32,-42)">
	<g
   id="g1613">
		<line
   class="st10"
   x1="46"
   y1="271"
   x2="47.5"
   y2="271"
   id="line1607" />
		<line
   class="st11"
   x1="50.599998"
   y1="271"
   x2="116.9"
   y2="271"
   id="line1609" />
		<line
   class="st10"
   x1="118.5"
   y1="271"
   x2="120"
   y2="271"
   id="line1611" />
	</g>
</g>
<g
   id="line56-2"
   transform="translate(-32,-42)">
	<g
   id="g1622">
		<line
   class="st10"
   x1="46"
   y1="277"
   x2="47.5"
   y2="277"
   id="line1616" />
		<line
   class="st11"
   x1="50.599998"
   y1="277"
   x2="116.9"
   y2="277"
   id="line1618" />
		<line
   class="st10"
   x1="118.5"
   y1="277"
   x2="120"
   y2="277"
   id="line1620" />
	</g>
</g>
</svg>
