<?xml version="1.0" encoding="UTF-8" standalone="no"?>
<!-- Created with Inkscape (http://www.inkscape.org/) -->

<svg
   width="56.8913mm"
   height="56.8913mm"
   viewBox="0 0 56.891298 56.8913"
   version="1.1"
   id="svg5"
   inkscape:version="1.1.2 (0a00cf5339, 2022-02-04)"
   sodipodi:docname="info.svg"
   xmlns:inkscape="http://www.inkscape.org/namespaces/inkscape"
   xmlns:sodipodi="http://sodipodi.sourceforge.net/DTD/sodipodi-0.dtd"
   xmlns="http://www.w3.org/2000/svg"
   xmlns:svg="http://www.w3.org/2000/svg">
  <sodipodi:namedview
     id="namedview7"
     pagecolor="#ffffff"
     bordercolor="#666666"
     borderopacity="1.0"
     inkscape:pageshadow="2"
     inkscape:pageopacity="0.0"
     inkscape:pagecheckerboard="0"
     inkscape:document-units="mm"
     showgrid="false"
     inkscape:snap-nodes="true"
     inkscape:zoom="0.5362935"
     inkscape:cx="-379.4564"
     inkscape:cy="-192.99134"
     inkscape:window-width="1600"
     inkscape:window-height="836"
     inkscape:window-x="0"
     inkscape:window-y="0"
     inkscape:window-maximized="1"
     inkscape:current-layer="layer1"
     lock-margins="true"
     fit-margin-top="1"
     fit-margin-left="1"
     fit-margin-right="1"
     fit-margin-bottom="1"
     units="mm" />
  <defs
     id="defs2">
    <rect
       x="125.03356"
       y="70.667343"
       width="326.37576"
       height="423.50876"
       id="rect35171" />
  </defs>
  <g
     inkscape:label="Layer 1"
     inkscape:groupmode="layer"
     id="layer1"
     transform="translate(-84.592863,-120.08841)">
    <g
       aria-label="i"
       transform="matrix(0.26458333,0,0,0.26458333,72.540013,102.264)"
       id="text35169"
       style="font-size:192px;line-height:1.25;white-space:pre;shape-inside:url(#rect35171)">
      <path
         d="m 161.1292,151.26297 -1.728,-0.768 c -9.408,4.032 -19.968,6.72 -29.952,7.872 v 5.376 h 7.104 c 7.872,0.192 8.256,0.96 8.448,14.016 v 43.2 c 0,12.48 -0.576,13.248 -7.104,13.824 l -8.832,0.576 v 5.76 c 13.44,-0.384 19.008,-0.576 24,-0.576 4.992,0 10.56,0.192 24,0.576 v -5.76 l -8.832,-0.576 c -6.72,-0.768 -6.912,-1.152 -7.104,-13.824 z m -8.832,-42.624 c -5.76,0 -10.752,4.992 -10.752,10.752 0,5.568 4.992,10.56 10.56,10.56 5.568,0 10.752,-4.992 10.752,-10.56 0,-5.376 -5.184,-10.752 -10.56,-10.752 z"
         style="font-family:P052;-inkscape-font-specification:P052"
         id="path67548" />
    </g>
    <circle
       style="fill:none;stroke:#000000;stroke-width:2.85001;stroke-linecap:round;stroke-linejoin:round"
       id="path67880"
       cx="113.03851"
       cy="148.53406"
       r="26.020645" />
  </g>
</svg>
